<svg xmlns="http://www.w3.org/2000/svg" viewBox="0 0 105 72">
  <title>logo-hare</title>
  <path d="M104.256,56.751a2.924,2.924,0,0,1-.639,3.024c-.556.708-1.307-.043-2.045-.986-.229-.294-.527-1.092-.992-1.257a12.561,12.561,0,0,1-2-.918c-.576-.356-.761-.672-1.391-1.083s-1.159-.668-1.875-1.19a9.95,9.95,0,0,0-1.793-1.384,9.557,9.557,0,0,0-3.587-1.287c-1.3-.122-7.566.284-10.268.214.511.589,1.291,1.611,1.561,2.012.329.487,2.279,2.449,2.988,3.143s1.669,2.406,2.1,2.827,1.807,1.166,2.869,2.053a21.154,21.154,0,0,1,3.633,4.073c.793,1.145,2.125,4.966-.166,5.352-1.405.237-2.83-2.079-2.9-3.255s-.9-1.318-1.907-2.112-4.849-3.806-6.668-5.3-3-3.312-4.509-4.46-5.968-2.682-7.224-4.086-1.867-2.467-2.2-2.733a1.923,1.923,0,0,0-1.314-.383c-.465,0-10.047-1.013-16.563-7.228s-8.651-5.421-11.225-5.421-3.313,0-4.326,1.2-2.6,4.079-6.792,4.079A14,14,0,0,1,20.7,39.707s-.958,1.177-1.259,1.534a4.946,4.946,0,0,0-.739,1.7c-.219.739-1.944,4.353-3.97,4.517s-4-.274-4.107-.794.684-.219.767-.9.027-1.068.383-1.342,1.095-.3,1.177-.63a2.5,2.5,0,0,1,.766-1.67,15.049,15.049,0,0,0,2.765-3.832s-3.215-.817-4.064.689-2.054,5.174-6.489,6.845S.538,45.872.565,45.27s.164-1.615.739-1.944.684-.492.712-1.013a4.473,4.473,0,0,1,2.136-2.546c1.369-.876,4.216-2.6,5.366-4.3s1.889-4.462,3.367-4.462,3.927,2.458,5.323,2.732a3.226,3.226,0,0,0,.6-1.724c0-.931.329-2.3,1.506-2.3s.969.622,1.95.622a26.993,26.993,0,0,1,.131-3.989,10.278,10.278,0,0,0,.657-2.546c-.082-.521-1.1-1.232-1.1-2.711V19.612l.3.137s-.137-1.779.657-2.026a6.02,6.02,0,0,1,.658-1.587.631.631,0,0,1,.712-.219,4.191,4.191,0,0,1,.6-1.123c.275-.246.6.137.6.137S26.5,13.945,26.778,14s.219.383.219.383A2.651,2.651,0,0,1,27.873,14c.329-.026.356.331.356.331A2.317,2.317,0,0,1,29.351,14l.383.085s1.287,0,1.588.493a1.478,1.478,0,0,1-.3,1.7s3.888-1.123,9.966,1.45,15.195,7.365,19.657,7.858,8.815.356,10.842-.629a13.3,13.3,0,0,1,2.409-1.04.79.79,0,0,0-.383-.712c-.438-.3-.735-2.409.386-4.654s1.312-2.382,1.64-2.382a15.151,15.151,0,0,1-1.67-.821c-.739-.438-1.068-1.314-2.354-1.779s-3.778-.712-5.64-1.342-3.97-1.424-4.6-2.136.246-.875-1.15-1.943a25.791,25.791,0,0,1-2.711-2.136c-.164-.274-.356-1.1.383-1.123a27.28,27.28,0,0,0,2.847-.767,16.3,16.3,0,0,1,1.67-.191,2.1,2.1,0,0,1-.6-1.834C61.876.913,62.2.612,63.135.639S64.176,1.9,66.284,2.283s5.585,2.327,6.954,3.011a10.832,10.832,0,0,1,3.395,3.149c.684.958,2.327,3.7,2.656,3.778a1.292,1.292,0,0,1,.849.658,2.824,2.824,0,0,0,2.108,1.561c1.4.246,2.984,1.533,4.627,2.929s2.08,1.889,2.136,2.519a4.211,4.211,0,0,0,1.259,2.108,6.489,6.489,0,0,1,1.424,1.834,2.39,2.39,0,0,0,.849,1.177,1.641,1.641,0,0,1,.356,1.834,2.11,2.11,0,0,0-.329.876,3.591,3.591,0,0,1-.876,1.451,1.883,1.883,0,0,1-1.341.383c-.52.027-.767.493-1.4.493h-.629s-.164.794-.849.822-1.123-.384-1.479,0-.438.766,0,1.7,1.725,4.244.438,6.9a51.515,51.515,0,0,1-3.7,6.023,2.9,2.9,0,0,0,1.424,1.177,9.393,9.393,0,0,0,4.325,1.15,11.551,11.551,0,0,1,4.364.53c1.05.508,2.891,2.454,4.479,3.221a14.463,14.463,0,0,1,3.833,2.628c.411.548.955.42,1.712.872a3.339,3.339,0,0,1,1.383,1.689"/>
</svg>